<svg width="20" height="19" viewBox="0 0 20 19" fill="none" xmlns="http://www.w3.org/2000/svg">
<path d="M0.5 0.470825C4.22622 1.134 8.52 2.86288 11.9953 4.70152C13.8255 5.67183 15.4295 6.66681 16.6062 7.54666C17.1948 7.9907 17.6768 8.40184 18.0235 8.75543C18.3702 9.11313 18.5738 9.4256 18.626 9.59006C18.9978 10.77 18.7667 11.9624 18.5549 13.0725C18.1621 15.1446 18.6877 16.7276 19.5 18.2653C18.4619 18.0309 17.6344 17.4512 17.1557 16.3329C16.8073 15.5188 16.7802 14.8116 16.6856 13.9647C16.591 13.1177 16.4203 12.1474 15.7627 10.9551L15.7545 10.9386L15.7462 10.9222C15.3843 10.4041 14.6687 10.0094 13.6898 9.54894C12.7151 9.08846 11.4853 8.60331 10.1528 8.10582C7.52881 7.12729 4.51 6.10353 2.33432 5.17434C1.51175 3.93679 0.935959 2.12199 0.5 0.470825ZM2.76205 6.15287C4.88838 7.01628 7.5576 7.92491 9.8978 8.79655C11.2221 9.28992 12.4395 9.77096 13.3772 10.215C14.3067 10.6549 14.9607 11.1031 15.1293 11.3333C15.409 11.839 15.5858 12.2872 15.7051 12.7024C12.275 12.4352 7.67276 11.395 4.54702 9.9642C3.4201 8.7431 3.02938 7.50966 2.76205 6.15287ZM5.14749 11.0373C8.39662 12.3612 12.6328 13.2287 15.8737 13.4466C15.9107 13.6522 15.9354 13.8495 15.956 14.0469C15.9724 14.1908 15.9848 14.3388 16.0012 14.4827C13.0235 14.7911 10.3954 14.6472 7.52059 14.2155C6.17981 13.2904 5.4724 12.1762 5.14749 11.0373ZM8.37194 15.0748C10.9342 15.4078 13.3731 15.4941 16.0876 15.2145C16.1164 15.3996 16.1534 15.5846 16.1986 15.7737C14.7221 16.5631 12.164 16.8345 10.4119 16.7851C9.16983 16.2753 8.70508 15.7655 8.37194 15.0748ZM16.4257 16.4891C16.473 16.5754 16.5548 16.7646 16.5988 16.855C16.0218 17.6855 14.5946 18.1789 12.9618 18.4708C12.0899 18.1419 11.7979 17.8335 11.4607 17.5252C13.0935 17.48 15.0265 17.2086 16.4248 16.4891H16.4257Z" fill="#D9D9D9"/>
</svg>
