<svg width="78" height="55" viewBox="0 0 78 55" fill="none" xmlns="http://www.w3.org/2000/svg">
<path d="M77.3629 35.9497C72.3835 43.7801 79.5733 50.8733 74.99 52.2894C74.3831 52.2754 62.7675 54.9182 62.5085 54.4427C62.0565 54.3703 58.0001 53.5949 57.2765 52.9186C56.5566 52.3364 56.5147 51.322 57.5634 51.0602L72.0217 49.7483L71.8452 50.2072C71.0238 49.3034 53.2137 50.3724 52.3263 49.3288L49.1751 46.4992C48.6088 45.8229 49.1167 44.7971 49.9965 44.8365L69.5688 46.1954C70.761 46.2716 70.6264 46.142 70.6264 45.5649L70.8879 46.3352L70.6264 47.239C70.6264 46.7064 70.8244 46.3352 69.7465 46.081L45.4374 43.1509C45.1771 43.5068 39.653 38.0408 39.4004 37.9239C38.6526 37.2959 39.1388 36.0756 40.1126 36.1366L69.3555 42.0285C70.4867 42.2039 70.2442 42.1607 70.2442 41.5759L70.3598 42.8395C70.3598 42.3336 70.302 42.2077 69.372 41.9242L34.4413 32.9993C34.2674 32.9752 34.1023 32.9066 33.9639 32.7985L24.4698 24.0884C23.628 23.4401 24.2248 22.0978 25.2696 22.2897C26.0784 22.4842 69.5447 37.0302 70.3712 37.0696C64.2301 34.0214 19.8306 18.9211 20.1506 18.9046C19.4015 18.9046 6.87937 7.42465 0.616398 1.76794C-0.194881 1.03574 0.569423 -0.283731 1.60796 0.0544004L74.698 30.0007C77.1699 30.8053 78.3799 33.5548 77.3629 35.9497Z" fill="#FFD700"/>
</svg>
