<svg width="19" height="19" viewBox="0 0 19 19" fill="none" xmlns="http://www.w3.org/2000/svg">
<g clip-path="url(#clip0_81_44595)">
<path d="M18.3244 9.95731C18.3244 9.34552 18.2748 8.73041 18.169 8.12854H9.67993V11.5943H14.5412C14.3395 12.712 13.6913 13.7008 12.7422 14.3292V16.5779H15.6425C17.3456 15.0104 18.3244 12.6955 18.3244 9.95731Z" fill="#4285F4"/>
<path d="M9.68008 18.7506C12.1074 18.7506 14.1544 17.9536 15.6459 16.5779L12.7457 14.3292C11.9388 14.8781 10.8971 15.189 9.68338 15.189C7.33541 15.189 5.3446 13.6049 4.63029 11.4752H1.63745V13.7934C3.16529 16.8326 6.27717 18.7506 9.68008 18.7506Z" fill="#34A853"/>
<path d="M4.62684 11.4752C4.24984 10.3574 4.24984 9.14703 4.62684 8.02927V5.71106H1.63731C0.360806 8.25414 0.360806 11.2503 1.63731 13.7934L4.62684 11.4752Z" fill="#FBBC04"/>
<path d="M9.68008 4.31224C10.9632 4.2924 12.2033 4.77522 13.1326 5.6615L15.7021 3.09196C14.0751 1.56413 11.9156 0.724151 9.68008 0.750606C6.27717 0.750606 3.16529 2.66867 1.63745 5.71111L4.62698 8.02931C5.33798 5.8963 7.33211 4.31224 9.68008 4.31224Z" fill="#EA4335"/>
</g>
<defs>
<clipPath id="clip0_81_44595">
<rect width="18" height="18" fill="white" transform="translate(0.5 0.75)"/>
</clipPath>
</defs>
</svg>
