<svg width="157" height="56" viewBox="0 0 157 56" fill="none" xmlns="http://www.w3.org/2000/svg">
<g id="Vector">
<path d="M77.2428 36.7225C72.2634 44.5529 79.4532 51.646 74.8699 53.0621C74.2631 53.0481 62.6474 55.6909 62.3884 55.2155C61.9364 55.143 57.88 54.3676 57.1564 53.6914C56.4365 53.1092 56.3946 52.0948 57.4433 51.8329L71.9016 50.5211L71.7251 50.98C70.9037 50.0762 53.0936 51.1452 52.2062 50.1016L49.055 47.272C48.4888 46.5957 48.9966 45.5699 49.8764 45.6093L69.4487 46.9681C70.6409 47.0444 70.5063 46.9147 70.5063 46.3376L70.7678 47.108L70.5063 48.0118C70.5063 47.4792 70.7044 47.108 69.6264 46.8537L45.3173 43.9237C45.057 44.2796 39.5329 38.8136 39.2803 38.6966C38.5325 38.0687 39.0187 36.8483 39.9925 36.9094L69.2354 42.8012C70.3666 42.9767 70.1241 42.9334 70.1241 42.3487L70.2397 43.6122C70.2397 43.1063 70.1819 42.9805 69.2519 42.697L34.3212 33.7721C34.1473 33.748 33.9822 33.6793 33.8438 33.5713L24.3497 24.8612C23.508 24.2129 24.1047 22.8705 25.1496 23.0625C25.9583 23.257 69.4246 37.803 70.2511 37.8424C64.11 34.7941 19.7106 19.6939 20.0305 19.6774C19.2814 19.6774 6.75929 8.19742 0.496312 2.54071C-0.314968 1.80851 0.449336 0.489035 1.48788 0.827167L74.5779 30.7734C77.0499 31.5781 78.2598 34.3276 77.2428 36.7225Z" fill="#FFD700"/>
<path d="M82.2648 33.4869V18.8033H87.4373C92.4442 18.8033 94.865 21.9498 94.865 26.1661C94.865 30.3614 92.4442 33.4869 87.4373 33.4869H82.2648ZM85.1614 30.8439H87.0855C90.5201 30.8439 91.8649 28.8301 91.8649 26.1661C91.8649 23.5021 90.5201 21.4464 87.0855 21.4464H85.1614V30.8439Z" fill="white"/>
<path d="M96.2014 33.4869V22.5791H98.9945V33.4869H96.2014ZM95.9117 19.999C95.9117 19.097 96.6359 18.3418 97.5876 18.3418C98.56 18.3418 99.2635 19.097 99.2635 19.999C99.2635 20.9429 98.56 21.6771 97.5876 21.6771C96.6359 21.6771 95.9117 20.922 95.9117 19.999Z" fill="white"/>
<path d="M103.998 33.4869L99.5086 22.5791H102.819L104.971 28.8091C105.157 29.3335 105.322 29.9838 105.426 30.5502C105.529 29.9838 105.695 29.3335 105.881 28.8091L108.033 22.5791H111.281L106.812 33.4869H103.998Z" fill="white"/>
<path d="M111.8 33.4869V22.5791H114.593V33.4869H111.8ZM111.51 19.999C111.51 19.097 112.234 18.3418 113.186 18.3418C114.158 18.3418 114.862 19.097 114.862 19.999C114.862 20.9429 114.158 21.6771 113.186 21.6771C112.234 21.6771 111.51 20.922 111.51 19.999Z" fill="white"/>
<path d="M116.245 33.4869V22.5791H118.997V24.1733C119.555 22.9567 120.631 22.3274 122.286 22.3274C124.604 22.3274 126.383 24.0684 126.383 26.8164V33.4869H123.59V27.5086C123.59 25.6207 122.659 24.8026 121.272 24.8026C120.093 24.8026 119.038 25.6207 119.038 27.5086V33.4869H116.245Z" fill="white"/>
<path d="M133.095 33.7596C129.764 33.7596 127.53 31.2005 127.53 28.054C127.53 24.9075 129.868 22.3064 133.095 22.3064C136.323 22.3064 138.557 24.9075 138.557 28.054C138.557 28.3686 138.537 28.7042 138.475 29.0608H130.426C130.737 30.3404 131.688 31.2424 133.095 31.2424C134.295 31.2424 135.226 30.6131 135.723 29.774L137.895 31.4312C137.026 32.7947 135.226 33.7596 133.095 33.7596ZM130.426 26.9422H135.744C135.433 25.7256 134.419 24.7397 133.054 24.7397C131.73 24.7397 130.737 25.6417 130.426 26.9422Z" fill="white"/>
<path d="M82.2648 50.9632V36.5295H87.4331C92.436 36.5295 94.8547 39.6224 94.8547 43.767C94.8547 47.8909 92.436 50.9632 87.4331 50.9632H82.2648ZM85.159 48.3652H87.0816C90.5134 48.3652 91.8571 46.3857 91.8571 43.767C91.8571 41.1483 90.5134 39.1276 87.0816 39.1276H85.159V48.3652Z" fill="white"/>
<path d="M101.136 51.2313C97.8075 51.2313 95.5747 48.7157 95.5747 45.6228C95.5747 42.5298 97.9108 39.973 101.136 39.973C104.361 39.973 106.594 42.5298 106.594 45.6228C106.594 45.9321 106.573 46.262 106.511 46.6125H98.469C98.7791 47.8703 99.7301 48.7569 101.136 48.7569C102.335 48.7569 103.265 48.1384 103.761 47.3136L105.932 48.9425C105.064 50.2828 103.265 51.2313 101.136 51.2313ZM98.469 44.5299H103.782C103.472 43.334 102.459 42.3649 101.094 42.3649C99.7714 42.3649 98.7791 43.2515 98.469 44.5299Z" fill="white"/>
<path d="M107.819 50.9632V35.9109H110.61V50.9632H107.819Z" fill="white"/>
<path d="M112.26 50.9632V40.241H115.051V50.9632H112.26ZM111.971 37.7048C111.971 36.8182 112.694 36.0759 113.645 36.0759C114.617 36.0759 115.32 36.8182 115.32 37.7048C115.32 38.6327 114.617 39.3544 113.645 39.3544C112.694 39.3544 111.971 38.6121 111.971 37.7048Z" fill="white"/>
<path d="M120.051 50.9632L115.565 40.241H118.872L121.022 46.3651C121.209 46.8806 121.374 47.5198 121.477 48.0765C121.581 47.5198 121.746 46.8806 121.932 46.3651L124.082 40.241H127.328L122.862 50.9632H120.051Z" fill="white"/>
<path d="M132.307 51.2313C128.979 51.2313 126.746 48.7157 126.746 45.6228C126.746 42.5298 129.082 39.973 132.307 39.973C135.532 39.973 137.765 42.5298 137.765 45.6228C137.765 45.9321 137.744 46.262 137.682 46.6125H129.64C129.95 47.8703 130.901 48.7569 132.307 48.7569C133.506 48.7569 134.437 48.1384 134.933 47.3136L137.103 48.9425C136.235 50.2828 134.436 51.2313 132.307 51.2313ZM129.64 44.5299H134.953C134.643 43.334 133.63 42.3649 132.266 42.3649C130.943 42.3649 129.95 43.2515 129.64 44.5299Z" fill="white"/>
<path d="M138.99 50.9632V40.241H141.698V42.2824C142.07 40.7359 143.166 39.8905 145.027 39.9936V42.6123H144.634C143.021 42.6123 141.781 43.6845 141.781 45.4784V50.9632H138.99Z" fill="white"/>
<path d="M147.313 55.2727C146.755 55.2727 146.011 55.2315 145.453 55.0666L145.866 52.4066C146.28 52.5097 146.672 52.551 147.127 52.551C148.202 52.551 148.884 51.8705 149.195 50.922L149.339 50.4684L145.081 40.241H148.45L150.538 46.3651C150.724 46.8806 150.89 47.5198 150.993 48.0765C151.097 47.5198 151.262 46.8806 151.448 46.3651L153.536 40.241H156.844L152.089 51.6437C151.179 53.8088 149.835 55.2727 147.313 55.2727Z" fill="white"/>
</g>
</svg>
