<svg width="21" height="21" viewBox="0 0 21 21" fill="none" xmlns="http://www.w3.org/2000/svg">
<path d="M19.1788 10.4287C19.1799 10.8901 19.0468 11.3418 18.7954 11.7287C18.5516 12.1195 18.1979 12.4296 17.7788 12.6204L5.9871 18.3371C5.65872 18.502 5.29623 18.5876 4.92876 18.587C4.7746 18.5873 4.6209 18.5706 4.47043 18.5371C3.95564 18.4404 3.48705 18.1768 3.13709 17.7871C2.78461 17.3977 2.56805 16.9045 2.51995 16.3815C2.47187 15.8585 2.59486 15.3341 2.87043 14.8871L5.7371 10.9037C5.80332 10.7454 5.83731 10.5754 5.83709 10.4037C5.8374 10.2186 5.79461 10.0361 5.7121 9.87038L3.06209 6.12038C2.78828 5.66498 2.67393 5.13133 2.73709 4.60371C2.79405 4.09708 3.0103 3.62159 3.35474 3.24571C3.69918 2.86983 4.15401 2.61294 4.65376 2.51205C5.15631 2.41351 5.677 2.47168 6.14542 2.67872L17.8121 8.23704C18.222 8.43805 18.5674 8.74998 18.8089 9.13738C19.0505 9.5248 19.1786 9.97213 19.1788 10.4287Z" fill="#FFD700"/>
</svg>
