<svg width="16" height="17" viewBox="0 0 16 17" fill="none" xmlns="http://www.w3.org/2000/svg">
<path d="M12.8245 8.92448L9.2245 12.5245C9.11178 12.6372 8.95891 12.7005 8.7995 12.7005C8.64009 12.7005 8.48722 12.6372 8.3745 12.5245C8.26178 12.4118 8.19846 12.2589 8.19846 12.0995C8.19846 11.9401 8.26178 11.7872 8.3745 11.6745L10.95 9.09998H3.6C3.44087 9.09998 3.28826 9.03677 3.17574 8.92425C3.06321 8.81173 3 8.65911 3 8.49998C3 8.34085 3.06321 8.18824 3.17574 8.07572C3.28826 7.9632 3.44087 7.89998 3.6 7.89998H10.95L8.3755 5.32398C8.26278 5.21127 8.19946 5.05839 8.19946 4.89898C8.19946 4.73958 8.26278 4.5867 8.3755 4.47398C8.48822 4.36127 8.64109 4.29794 8.8005 4.29794C8.95991 4.29794 9.11278 4.36127 9.2255 4.47398L12.8255 8.07398C12.8814 8.1298 12.9258 8.19612 12.9561 8.26913C12.9863 8.34215 13.0018 8.42041 13.0017 8.49944C13.0016 8.57847 12.9859 8.6567 12.9555 8.72964C12.9251 8.80258 12.8806 8.8688 12.8245 8.92448Z" fill="white"/>
</svg>
