<svg width="18" height="19" viewBox="0 0 18 19" fill="none" xmlns="http://www.w3.org/2000/svg">
<g id="twemoji:flag-france" clip-path="url(#clip0_61_36854)">
<path id="Vector" d="M17.8437 13.5228C17.8437 14.0532 17.6447 14.5619 17.2904 14.937C16.9362 15.3121 16.4557 15.5228 15.9548 15.5228H12.177V2.52277H15.9548C16.4557 2.52277 16.9362 2.73348 17.2904 3.10855C17.6447 3.48363 17.8437 3.99233 17.8437 4.52277V13.5228Z" fill="#ED2939"/>
<path id="Vector_2" d="M2.73264 2.52277C2.23167 2.52277 1.75123 2.73348 1.39699 3.10855C1.04276 3.48363 0.84375 3.99233 0.84375 4.52277L0.84375 13.5228C0.84375 14.0532 1.04276 14.5619 1.39699 14.937C1.75123 15.3121 2.23167 15.5228 2.73264 15.5228H6.51042V2.52277H2.73264Z" fill="#002495"/>
<path id="Vector_3" d="M6.5105 2.52277H12.1772V15.5228H6.5105V2.52277Z" fill="#EEEEEE"/>
</g>
<defs>
<clipPath id="clip0_61_36854">
<rect width="17" height="18" fill="white" transform="translate(0.84375 0.0227661)"/>
</clipPath>
</defs>
</svg>
