<svg width="15" height="15" viewBox="0 0 15 15" fill="none" xmlns="http://www.w3.org/2000/svg">
<path id="Subtract" fill-rule="evenodd" clip-rule="evenodd" d="M6.0522 0.5C5.77606 0.5 5.5522 0.723857 5.5522 1V3.61548L3.28915 2.30863C3.05001 2.17054 2.74424 2.25247 2.60619 2.49163L0.864038 5.50976C0.725989 5.74892 0.807934 6.05475 1.04707 6.19284L3.31013 7.49969L1.04696 8.8066C0.807825 8.94469 0.72588 9.25052 0.863929 9.48968L2.60609 12.5078C2.74414 12.747 3.0499 12.8289 3.28904 12.6908L5.5522 11.3839V14C5.5522 14.2761 5.77606 14.5 6.0522 14.5H9.53635C9.8125 14.5 10.0364 14.2761 10.0364 14V11.3839L12.3029 12.6928C12.542 12.8309 12.8478 12.7489 12.9859 12.5098L14.728 9.49163C14.8661 9.25247 14.7841 8.94665 14.545 8.80855L12.2784 7.49969L14.5449 6.19088C14.784 6.05279 14.866 5.74697 14.7279 5.50781L12.9858 2.48968C12.8477 2.25052 12.5419 2.16859 12.3028 2.30668L10.0364 3.61549V1C10.0364 0.723858 9.8125 0.5 9.53636 0.5H6.0522ZM7.7957 9.37256C8.82981 9.37256 9.66812 8.53408 9.66812 7.49976C9.66812 6.46544 8.82981 5.62695 7.7957 5.62695C6.7616 5.62695 5.92329 6.46544 5.92329 7.49976C5.92329 8.53408 6.7616 9.37256 7.7957 9.37256Z" fill="#AEB9E1"/>
</svg>
